<svg width="223" height="62" viewBox="0 0 223 62" fill="none" xmlns="http://www.w3.org/2000/svg">
<path fill-rule="evenodd" clip-rule="evenodd" d="M26.0692 7.96561L11.5117 30.7384L26.0692 53.5134H196.932L211.489 30.7384L196.932 7.96338H26.0692V7.96561ZM30.431 15.9312L20.9647 30.7406L30.431 45.55H192.57L202.036 30.7406L192.57 15.9312H30.431Z" fill="url(#paint0_linear_51_3234)"/>
<path fill-rule="evenodd" clip-rule="evenodd" d="M192.569 15.9281L211.268 45.1812V49.0882L191.417 18.0332L192.569 15.9281Z" fill="url(#paint1_linear_51_3234)"/>
<path fill-rule="evenodd" clip-rule="evenodd" d="M211.268 45.1831L192.57 15.9299L193.723 13.8248L211.268 41.2739V45.1831Z" fill="url(#paint2_linear_51_3234)"/>
<path fill-rule="evenodd" clip-rule="evenodd" d="M2.4976 30.7387L11.732 16.295V12.3881L0 30.7387H2.4976Z" fill="url(#paint3_linear_51_3234)"/>
<path fill-rule="evenodd" clip-rule="evenodd" d="M11.732 16.2939L2.49756 30.7376H4.99739L11.732 20.203V16.2939Z" fill="url(#paint4_linear_51_3234)"/>
<path fill-rule="evenodd" clip-rule="evenodd" d="M30.4305 45.5482L11.7319 16.295V12.3881L31.5834 43.443L30.4305 45.5482Z" fill="url(#paint5_linear_51_3234)"/>
<path fill-rule="evenodd" clip-rule="evenodd" d="M11.7319 16.2939L30.4305 45.547L29.2776 47.6521L11.7319 20.203V16.2939Z" fill="url(#paint6_linear_51_3234)"/>
<path fill-rule="evenodd" clip-rule="evenodd" d="M11.5115 30.7383L26.069 53.5133L24.9161 55.6185L9.01172 30.7383H11.5115Z" fill="url(#paint7_linear_51_3234)"/>
<path fill-rule="evenodd" clip-rule="evenodd" d="M26.0692 53.5133L11.5117 30.7383H14.0093L27.2221 51.4082L26.0692 53.5133Z" fill="url(#paint8_linear_51_3234)"/>
<path fill-rule="evenodd" clip-rule="evenodd" d="M26.0689 53.5119H196.932L198.085 55.617H24.916L26.0689 53.5119Z" fill="url(#paint9_linear_51_3234)"/>
<path fill-rule="evenodd" clip-rule="evenodd" d="M196.932 53.5137H26.0688L27.2218 51.4086H195.779L196.932 53.5137Z" fill="url(#paint10_linear_51_3234)"/>
<path fill-rule="evenodd" clip-rule="evenodd" d="M195.778 51.4082L208.991 30.7383H211.489L196.931 53.5133L195.778 51.4082Z" fill="url(#paint11_linear_51_3234)"/>
<path fill-rule="evenodd" clip-rule="evenodd" d="M196.931 53.5133L211.489 30.7383H213.986L198.084 55.6185L196.931 53.5133Z" fill="url(#paint12_linear_51_3234)"/>
<path fill-rule="evenodd" clip-rule="evenodd" d="M30.4305 15.9281L11.7319 45.1812V49.0882L31.5834 18.0332L30.4305 15.9281Z" fill="url(#paint13_linear_51_3234)"/>
<path fill-rule="evenodd" clip-rule="evenodd" d="M11.7319 45.1831L30.4305 15.9299L29.2776 13.8248L11.7319 41.2739V45.1831Z" fill="url(#paint14_linear_51_3234)"/>
<path fill-rule="evenodd" clip-rule="evenodd" d="M30.4307 15.9299H192.57L193.723 13.8248H29.2778L30.4307 15.9299Z" fill="url(#paint15_linear_51_3234)"/>
<path fill-rule="evenodd" clip-rule="evenodd" d="M192.57 15.9281H30.4307L31.5836 18.0332H191.417L192.57 15.9281Z" fill="url(#paint16_linear_51_3234)"/>
<path fill-rule="evenodd" clip-rule="evenodd" d="M30.4307 45.5471H192.57L193.723 47.6523H29.2778L30.4307 45.5471Z" fill="url(#paint17_linear_51_3234)"/>
<path fill-rule="evenodd" clip-rule="evenodd" d="M192.57 45.549H30.4307L31.5836 43.4438H191.417L192.57 45.549Z" fill="url(#paint18_linear_51_3234)"/>
<path fill-rule="evenodd" clip-rule="evenodd" d="M2.4976 30.7383L11.732 45.1821V49.089L0 30.7383H2.4976Z" fill="url(#paint19_linear_51_3234)"/>
<path fill-rule="evenodd" clip-rule="evenodd" d="M11.732 45.1821L2.49756 30.7383H4.99739L11.732 41.2729V45.1821Z" fill="url(#paint20_linear_51_3234)"/>
<path fill-rule="evenodd" clip-rule="evenodd" d="M220.5 30.7387L211.268 16.295V12.3881L223 30.7387H220.5Z" fill="url(#paint21_linear_51_3234)"/>
<path fill-rule="evenodd" clip-rule="evenodd" d="M211.268 16.2939L220.5 30.7376H218.003L211.268 20.203V16.2939Z" fill="url(#paint22_linear_51_3234)"/>
<path fill-rule="evenodd" clip-rule="evenodd" d="M220.5 30.7383L211.268 45.1821V49.089L223 30.7383H220.5Z" fill="url(#paint23_linear_51_3234)"/>
<path fill-rule="evenodd" clip-rule="evenodd" d="M211.268 45.1821L220.5 30.7383H218.003L211.268 41.2729V45.1821Z" fill="url(#paint24_linear_51_3234)"/>
<path fill-rule="evenodd" clip-rule="evenodd" d="M11.5115 30.7393L26.069 7.96654L24.9161 5.86142L9.01172 30.7393H11.5115Z" fill="url(#paint25_linear_51_3234)"/>
<path fill-rule="evenodd" clip-rule="evenodd" d="M26.0692 7.96475L11.5117 30.7375H14.0093L27.2221 10.0699L26.0692 7.96475Z" fill="url(#paint26_linear_51_3234)"/>
<path fill-rule="evenodd" clip-rule="evenodd" d="M26.0689 7.96654H196.932L198.085 5.86142H24.916L26.0689 7.96654Z" fill="url(#paint27_linear_51_3234)"/>
<path fill-rule="evenodd" clip-rule="evenodd" d="M196.932 7.96475H26.0688L27.2218 10.0699H195.779L196.932 7.96475Z" fill="url(#paint28_linear_51_3234)"/>
<path fill-rule="evenodd" clip-rule="evenodd" d="M195.778 10.0699L208.991 30.7375H211.489L196.931 7.96475L195.778 10.0699Z" fill="url(#paint29_linear_51_3234)"/>
<path fill-rule="evenodd" clip-rule="evenodd" d="M196.931 7.96654L211.489 30.7393H213.986L198.084 5.86142L196.931 7.96654Z" fill="url(#paint30_linear_51_3234)"/>
<path fill-rule="evenodd" clip-rule="evenodd" d="M192.569 45.5482L211.268 16.295V12.3881L191.417 43.443L192.569 45.5482Z" fill="url(#paint31_linear_51_3234)"/>
<path fill-rule="evenodd" clip-rule="evenodd" d="M211.268 16.2939L192.57 45.547L193.723 47.6521L211.268 20.203V16.2939Z" fill="url(#paint32_linear_51_3234)"/>
<path fill-rule="evenodd" clip-rule="evenodd" d="M26.0691 7.96535L23.1099 8.68564L23.8235 3.86438L26.0691 7.96535Z" fill="url(#paint33_linear_51_3234)"/>
<path fill-rule="evenodd" clip-rule="evenodd" d="M26.0689 7.96535L28.2721 5.858L23.8232 3.86438L26.0689 7.96535Z" fill="url(#paint34_linear_51_3234)"/>
<path fill-rule="evenodd" clip-rule="evenodd" d="M196.931 7.96535L199.89 8.68564L199.177 3.86438L196.931 7.96535Z" fill="url(#paint35_linear_51_3234)"/>
<path fill-rule="evenodd" clip-rule="evenodd" d="M196.931 7.96535L194.728 5.858L199.177 3.86438L196.931 7.96535Z" fill="url(#paint36_linear_51_3234)"/>
<path fill-rule="evenodd" clip-rule="evenodd" d="M26.0691 53.514L23.1099 52.7915L23.8235 57.6127L26.0691 53.514Z" fill="url(#paint37_linear_51_3234)"/>
<path fill-rule="evenodd" clip-rule="evenodd" d="M26.0689 53.5119L28.2721 55.617L23.8232 57.6106L26.0689 53.5119Z" fill="url(#paint38_linear_51_3234)"/>
<path fill-rule="evenodd" clip-rule="evenodd" d="M196.931 53.514L199.89 52.7915L199.177 57.6127L196.931 53.514Z" fill="url(#paint39_linear_51_3234)"/>
<path fill-rule="evenodd" clip-rule="evenodd" d="M196.931 53.5119L194.728 55.617L199.177 57.6106L196.931 53.5119Z" fill="url(#paint40_linear_51_3234)"/>
<g style="mix-blend-mode:screen" opacity="0.35">
<path fill-rule="evenodd" clip-rule="evenodd" d="M111.5 13.8246H29.2778C29.6034 12.3595 37.4129 12.0651 111.5 12.0651C185.588 12.0651 193.397 12.3595 193.723 13.8246H111.5Z" fill="#FF9566"/>
</g>
<g style="mix-blend-mode:screen" opacity="0.35">
<path fill-rule="evenodd" clip-rule="evenodd" d="M111.5 51.4084H27.2217C27.5562 49.9455 35.5596 49.6489 111.5 49.6489C187.441 49.6489 195.444 49.9433 195.779 51.4084H111.5Z" fill="#FF9566"/>
</g>
<path style="mix-blend-mode:multiply" fill-rule="evenodd" clip-rule="evenodd" d="M16.2368 27.2528L18.4646 30.7382L20.9622 26.8291L18.7344 23.3436L16.2368 27.2528ZM20.9622 34.6474L23.19 38.1329L25.6876 34.2237L23.4598 30.7382L20.9622 34.6474Z" fill="url(#paint41_radial_51_3234)"/>
<path style="mix-blend-mode:multiply" fill-rule="evenodd" clip-rule="evenodd" d="M11.5117 34.6475L13.7395 38.133L16.2371 34.2238L14.0093 30.7383L11.5117 34.6475ZM16.2393 42.0422L18.4671 45.5277L20.9647 41.6185L18.7369 38.133L16.2393 42.0422Z" fill="url(#paint42_radial_51_3234)"/>
<path style="mix-blend-mode:multiply" fill-rule="evenodd" clip-rule="evenodd" d="M202.036 34.6475L204.264 38.133L206.764 34.2238L204.536 30.7383L202.038 34.6475H202.036ZM206.762 42.0422L208.989 45.5277L211.487 41.6185L209.259 38.133L206.762 42.0422Z" fill="url(#paint43_radial_51_3234)"/>
<path style="mix-blend-mode:multiply" fill-rule="evenodd" clip-rule="evenodd" d="M202.036 19.8608L204.264 23.3463L206.762 19.4371L204.534 15.9516L202.036 19.8608ZM206.762 27.2555L208.989 30.741L211.487 26.8318L209.259 23.3463L206.762 27.2555Z" fill="url(#paint44_radial_51_3234)"/>
<path fill-rule="evenodd" clip-rule="evenodd" d="M111.5 0L119.466 7.96556L111.5 15.9311L103.535 7.96556L111.5 0ZM111.5 2.97705L106.514 7.96333L111.5 12.9496L116.487 7.96333L111.5 2.97705Z" fill="#999999"/>
<path fill-rule="evenodd" clip-rule="evenodd" d="M105.024 7.96556L111.5 1.48964V0L103.535 7.96556H105.024Z" fill="url(#paint45_linear_51_3234)"/>
<path fill-rule="evenodd" clip-rule="evenodd" d="M111.5 1.49054L105.024 7.96646H106.514L111.5 2.97795V1.49054Z" fill="url(#paint46_linear_51_3234)"/>
<path fill-rule="evenodd" clip-rule="evenodd" d="M117.976 7.96556L111.5 1.48964V0L119.466 7.96556H117.976Z" fill="url(#paint47_linear_51_3234)"/>
<path fill-rule="evenodd" clip-rule="evenodd" d="M111.5 1.49054L117.976 7.96646H116.486L111.5 2.97795V1.49054Z" fill="url(#paint48_linear_51_3234)"/>
<path fill-rule="evenodd" clip-rule="evenodd" d="M105.024 7.96475L111.5 14.4407V15.9281L103.535 7.96475H105.024Z" fill="url(#paint49_linear_51_3234)"/>
<path fill-rule="evenodd" clip-rule="evenodd" d="M111.5 14.4407L105.024 7.96475H106.514L111.5 12.951V14.4407Z" fill="url(#paint50_linear_51_3234)"/>
<path fill-rule="evenodd" clip-rule="evenodd" d="M117.976 7.96475L111.5 14.4407V15.9281L119.466 7.96475H117.976Z" fill="url(#paint51_linear_51_3234)"/>
<path fill-rule="evenodd" clip-rule="evenodd" d="M111.5 14.4407L117.976 7.96475H116.486L111.5 12.951V14.4407Z" fill="url(#paint52_linear_51_3234)"/>
<path fill-rule="evenodd" clip-rule="evenodd" d="M106.514 7.96685L111.5 2.97833L116.486 7.96685L111.5 12.9531L106.514 7.96685Z" fill="#990099"/>
<path fill-rule="evenodd" clip-rule="evenodd" d="M108.287 7.96661L111.5 4.75317L114.713 7.96661L111.5 11.1778L108.287 7.96661Z" fill="url(#paint53_linear_51_3234)"/>
<path fill-rule="evenodd" clip-rule="evenodd" d="M108.287 7.96684L111.5 4.75341V2.97833L106.514 7.96684H108.287Z" fill="url(#paint54_linear_51_3234)"/>
<path fill-rule="evenodd" clip-rule="evenodd" d="M114.713 7.96684L111.5 4.75341V2.97833L116.486 7.96684H114.713Z" fill="url(#paint55_linear_51_3234)"/>
<path fill-rule="evenodd" clip-rule="evenodd" d="M108.287 7.95648L111.5 11.1699V12.945L106.514 7.95648H108.287Z" fill="url(#paint56_linear_51_3234)"/>
<path fill-rule="evenodd" clip-rule="evenodd" d="M114.713 7.95648L111.5 11.1699V12.945L116.486 7.95648H114.713Z" fill="url(#paint57_linear_51_3234)"/>
<path fill-rule="evenodd" clip-rule="evenodd" d="M111.5 45.5471L119.466 53.5127L111.5 61.4783L103.535 53.5127L111.5 45.5471ZM111.5 48.5242L106.514 53.5105L111.5 58.4968L116.487 53.5105L111.5 48.5242Z" fill="#999999"/>
<path fill-rule="evenodd" clip-rule="evenodd" d="M105.024 53.5127L111.5 47.0368V45.5471L103.535 53.5127H105.024Z" fill="url(#paint58_linear_51_3234)"/>
<path fill-rule="evenodd" clip-rule="evenodd" d="M111.5 47.0377L105.024 53.5136H106.514L111.5 48.5251V47.0377Z" fill="url(#paint59_linear_51_3234)"/>
<path fill-rule="evenodd" clip-rule="evenodd" d="M117.976 53.5127L111.5 47.0368V45.5471L119.466 53.5127H117.976Z" fill="url(#paint60_linear_51_3234)"/>
<path fill-rule="evenodd" clip-rule="evenodd" d="M111.5 47.0377L117.976 53.5136H116.486L111.5 48.5251V47.0377Z" fill="url(#paint61_linear_51_3234)"/>
<path fill-rule="evenodd" clip-rule="evenodd" d="M105.024 53.5119L111.5 59.9878V61.4752L103.535 53.5119H105.024Z" fill="url(#paint62_linear_51_3234)"/>
<path fill-rule="evenodd" clip-rule="evenodd" d="M111.5 59.9878L105.024 53.5119H106.514L111.5 58.4982V59.9878Z" fill="url(#paint63_linear_51_3234)"/>
<path fill-rule="evenodd" clip-rule="evenodd" d="M117.976 53.5119L111.5 59.9878V61.4752L119.466 53.5119H117.976Z" fill="url(#paint64_linear_51_3234)"/>
<path fill-rule="evenodd" clip-rule="evenodd" d="M111.5 59.9878L117.976 53.5119H116.486L111.5 58.4982V59.9878Z" fill="url(#paint65_linear_51_3234)"/>
<path fill-rule="evenodd" clip-rule="evenodd" d="M106.514 53.514L111.5 48.5255L116.486 53.514L111.5 58.5003L106.514 53.514Z" fill="#990099"/>
<path fill-rule="evenodd" clip-rule="evenodd" d="M108.287 53.5138L111.5 50.3003L114.713 53.5138L111.5 56.725L108.287 53.5138Z" fill="url(#paint66_linear_51_3234)"/>
<path fill-rule="evenodd" clip-rule="evenodd" d="M108.287 53.514L111.5 50.3006V48.5255L106.514 53.514H108.287Z" fill="url(#paint67_linear_51_3234)"/>
<path fill-rule="evenodd" clip-rule="evenodd" d="M114.713 53.514L111.5 50.3006V48.5255L116.486 53.514H114.713Z" fill="url(#paint68_linear_51_3234)"/>
<path fill-rule="evenodd" clip-rule="evenodd" d="M108.287 53.505L111.5 56.7184V58.4935L106.514 53.505H108.287Z" fill="url(#paint69_linear_51_3234)"/>
<path fill-rule="evenodd" clip-rule="evenodd" d="M114.713 53.505L111.5 56.7184V58.4935L116.486 53.505H114.713Z" fill="url(#paint70_linear_51_3234)"/>
<defs>
<linearGradient id="paint0_linear_51_3234" x1="111.5" y1="53.5134" x2="111.5" y2="7.96561" gradientUnits="userSpaceOnUse">
<stop stop-color="#33FF00"/>
<stop offset="1" stop-color="#086E04"/>
</linearGradient>
<linearGradient id="paint1_linear_51_3234" x1="201.342" y1="49.0882" x2="201.342" y2="15.9281" gradientUnits="userSpaceOnUse">
<stop stop-color="#6E4500"/>
<stop offset="1" stop-color="#CF9353"/>
</linearGradient>
<linearGradient id="paint2_linear_51_3234" x1="201.92" y1="45.1831" x2="201.92" y2="13.8248" gradientUnits="userSpaceOnUse">
<stop stop-color="#AB671C"/>
<stop offset="1" stop-color="#784C00"/>
</linearGradient>
<linearGradient id="paint3_linear_51_3234" x1="5.8649" y1="30.7387" x2="5.8649" y2="12.3881" gradientUnits="userSpaceOnUse">
<stop stop-color="#F5AD24"/>
<stop offset="1" stop-color="#FFE56B"/>
</linearGradient>
<linearGradient id="paint4_linear_51_3234" x1="7.11366" y1="30.7376" x2="7.11366" y2="16.2939" gradientUnits="userSpaceOnUse">
<stop stop-color="#AB671C"/>
<stop offset="1" stop-color="#784C00"/>
</linearGradient>
<linearGradient id="paint5_linear_51_3234" x1="21.6577" y1="45.5482" x2="21.6577" y2="12.3881" gradientUnits="userSpaceOnUse">
<stop stop-color="#AB671C"/>
<stop offset="1" stop-color="#784C00"/>
</linearGradient>
<linearGradient id="paint6_linear_51_3234" x1="21.0801" y1="47.6521" x2="21.0801" y2="16.2939" gradientUnits="userSpaceOnUse">
<stop stop-color="#F5B41E"/>
<stop offset="1" stop-color="#D18900"/>
</linearGradient>
<linearGradient id="paint7_linear_51_3234" x1="17.5415" y1="55.6185" x2="17.5415" y2="30.7383" gradientUnits="userSpaceOnUse">
<stop stop-color="#F5B41E"/>
<stop offset="1" stop-color="#D18900"/>
</linearGradient>
<linearGradient id="paint8_linear_51_3234" x1="19.3658" y1="53.5133" x2="19.3658" y2="30.7383" gradientUnits="userSpaceOnUse">
<stop stop-color="#AB671C"/>
<stop offset="1" stop-color="#784C00"/>
</linearGradient>
<linearGradient id="paint9_linear_51_3234" x1="111.5" y1="55.617" x2="111.5" y2="53.5119" gradientUnits="userSpaceOnUse">
<stop stop-color="#472D00"/>
<stop offset="1" stop-color="#784814"/>
</linearGradient>
<linearGradient id="paint10_linear_51_3234" x1="111.5" y1="53.5137" x2="111.5" y2="51.4086" gradientUnits="userSpaceOnUse">
<stop stop-color="#FFBE45"/>
<stop offset="1" stop-color="#FFF0AB"/>
</linearGradient>
<linearGradient id="paint11_linear_51_3234" x1="203.632" y1="53.5133" x2="203.632" y2="30.7383" gradientUnits="userSpaceOnUse">
<stop stop-color="#F5AD24"/>
<stop offset="1" stop-color="#FFE56B"/>
</linearGradient>
<linearGradient id="paint12_linear_51_3234" x1="205.459" y1="55.6185" x2="205.459" y2="30.7383" gradientUnits="userSpaceOnUse">
<stop stop-color="#784C00"/>
<stop offset="1" stop-color="#AB671C"/>
</linearGradient>
<linearGradient id="paint13_linear_51_3234" x1="21.6577" y1="49.0882" x2="21.6577" y2="15.9281" gradientUnits="userSpaceOnUse">
<stop stop-color="#E3A436"/>
<stop offset="1" stop-color="#784C00"/>
</linearGradient>
<linearGradient id="paint14_linear_51_3234" x1="21.0801" y1="45.1831" x2="21.0801" y2="13.8248" gradientUnits="userSpaceOnUse">
<stop stop-color="#F5AD24"/>
<stop offset="1" stop-color="#FFE56B"/>
</linearGradient>
<linearGradient id="paint15_linear_51_3234" x1="111.5" y1="15.9299" x2="111.5" y2="13.8248" gradientUnits="userSpaceOnUse">
<stop stop-color="#FFBE45"/>
<stop offset="1" stop-color="#FFF0AB"/>
</linearGradient>
<linearGradient id="paint16_linear_51_3234" x1="111.5" y1="18.0332" x2="111.5" y2="15.9281" gradientUnits="userSpaceOnUse">
<stop stop-color="#6E4500"/>
<stop offset="1" stop-color="#CF9353"/>
</linearGradient>
<linearGradient id="paint17_linear_51_3234" x1="111.5" y1="47.6523" x2="111.5" y2="45.5471" gradientUnits="userSpaceOnUse">
<stop stop-color="#784C00"/>
<stop offset="1" stop-color="#AB671C"/>
</linearGradient>
<linearGradient id="paint18_linear_51_3234" x1="111.5" y1="45.549" x2="111.5" y2="43.4438" gradientUnits="userSpaceOnUse">
<stop stop-color="#FFBE45"/>
<stop offset="1" stop-color="#FFF0AB"/>
</linearGradient>
<linearGradient id="paint19_linear_51_3234" x1="5.8649" y1="1.11849e-05" x2="5.8649" y2="30.7383" gradientUnits="userSpaceOnUse">
<stop stop-color="#6E4500"/>
<stop offset="1" stop-color="#CF9353"/>
</linearGradient>
<linearGradient id="paint20_linear_51_3234" x1="7.11366" y1="8.88206e-06" x2="7.11366" y2="30.7383" gradientUnits="userSpaceOnUse">
<stop stop-color="#AB671C"/>
<stop offset="1" stop-color="#784C00"/>
</linearGradient>
<linearGradient id="paint21_linear_51_3234" x1="217.135" y1="30.7387" x2="217.135" y2="12.3881" gradientUnits="userSpaceOnUse">
<stop stop-color="#AB671C"/>
<stop offset="1" stop-color="#784C00"/>
</linearGradient>
<linearGradient id="paint22_linear_51_3234" x1="215.884" y1="30.7376" x2="215.884" y2="16.2939" gradientUnits="userSpaceOnUse">
<stop stop-color="#6E4500"/>
<stop offset="1" stop-color="#CF9353"/>
</linearGradient>
<linearGradient id="paint23_linear_51_3234" x1="217.135" y1="49.089" x2="217.135" y2="30.7383" gradientUnits="userSpaceOnUse">
<stop stop-color="#AB671C"/>
<stop offset="1" stop-color="#784C00"/>
</linearGradient>
<linearGradient id="paint24_linear_51_3234" x1="215.884" y1="45.1821" x2="215.884" y2="30.7383" gradientUnits="userSpaceOnUse">
<stop stop-color="#F5AD24"/>
<stop offset="1" stop-color="#FFE56B"/>
</linearGradient>
<linearGradient id="paint25_linear_51_3234" x1="17.5415" y1="0.000977884" x2="17.5415" y2="5.86142" gradientUnits="userSpaceOnUse">
<stop stop-color="#F5AD24"/>
<stop offset="1" stop-color="#FFE56B"/>
</linearGradient>
<linearGradient id="paint26_linear_51_3234" x1="19.3658" y1="30.7375" x2="19.3658" y2="7.96475" gradientUnits="userSpaceOnUse">
<stop stop-color="#AB671C"/>
<stop offset="1" stop-color="#784C00"/>
</linearGradient>
<linearGradient id="paint27_linear_51_3234" x1="111.5" y1="7.96654" x2="111.5" y2="5.86142" gradientUnits="userSpaceOnUse">
<stop stop-color="#FFF18F"/>
<stop offset="1" stop-color="#FFFAE3"/>
</linearGradient>
<linearGradient id="paint28_linear_51_3234" x1="111.5" y1="10.0699" x2="111.5" y2="7.96475" gradientUnits="userSpaceOnUse">
<stop stop-color="#6E4500"/>
<stop offset="1" stop-color="#CF9353"/>
</linearGradient>
<linearGradient id="paint29_linear_51_3234" x1="203.632" y1="30.7375" x2="203.632" y2="7.96475" gradientUnits="userSpaceOnUse">
<stop stop-color="#6E4500"/>
<stop offset="1" stop-color="#CF9353"/>
</linearGradient>
<linearGradient id="paint30_linear_51_3234" x1="205.459" y1="30.7393" x2="205.459" y2="5.86142" gradientUnits="userSpaceOnUse">
<stop stop-color="#AB671C"/>
<stop offset="1" stop-color="#784C00"/>
</linearGradient>
<linearGradient id="paint31_linear_51_3234" x1="201.342" y1="45.5482" x2="201.342" y2="12.3881" gradientUnits="userSpaceOnUse">
<stop stop-color="#F5AD24"/>
<stop offset="1" stop-color="#FFE56B"/>
</linearGradient>
<linearGradient id="paint32_linear_51_3234" x1="201.92" y1="47.6521" x2="201.92" y2="16.2939" gradientUnits="userSpaceOnUse">
<stop stop-color="#E3A436"/>
<stop offset="1" stop-color="#784C00"/>
</linearGradient>
<linearGradient id="paint33_linear_51_3234" x1="23.1099" y1="6.27501" x2="26.0691" y2="6.27501" gradientUnits="userSpaceOnUse">
<stop stop-color="#FFF18F"/>
<stop offset="1" stop-color="#FFFAE3"/>
</linearGradient>
<linearGradient id="paint34_linear_51_3234" x1="23.8232" y1="5.91375" x2="28.2721" y2="5.91375" gradientUnits="userSpaceOnUse">
<stop stop-color="#F5AD24"/>
<stop offset="1" stop-color="#FFE56B"/>
</linearGradient>
<linearGradient id="paint35_linear_51_3234" x1="196.931" y1="6.27501" x2="199.89" y2="6.27501" gradientUnits="userSpaceOnUse">
<stop stop-color="#AB671C"/>
<stop offset="1" stop-color="#784C00"/>
</linearGradient>
<linearGradient id="paint36_linear_51_3234" x1="194.728" y1="5.91375" x2="199.177" y2="5.91375" gradientUnits="userSpaceOnUse">
<stop stop-color="#FFF18F"/>
<stop offset="1" stop-color="#FFFAE3"/>
</linearGradient>
<linearGradient id="paint37_linear_51_3234" x1="23.1099" y1="55.2021" x2="26.0691" y2="55.2021" gradientUnits="userSpaceOnUse">
<stop stop-color="#F5B41E"/>
<stop offset="1" stop-color="#D18900"/>
</linearGradient>
<linearGradient id="paint38_linear_51_3234" x1="23.8232" y1="55.5613" x2="28.2721" y2="55.5613" gradientUnits="userSpaceOnUse">
<stop stop-color="#472D00"/>
<stop offset="1" stop-color="#784814"/>
</linearGradient>
<linearGradient id="paint39_linear_51_3234" x1="196.931" y1="55.2021" x2="199.89" y2="55.2021" gradientUnits="userSpaceOnUse">
<stop stop-color="#784814"/>
<stop offset="1" stop-color="#472D00"/>
</linearGradient>
<linearGradient id="paint40_linear_51_3234" x1="194.728" y1="55.5613" x2="199.177" y2="55.5613" gradientUnits="userSpaceOnUse">
<stop stop-color="#784C00"/>
<stop offset="1" stop-color="#AB671C"/>
</linearGradient>
<radialGradient id="paint41_radial_51_3234" cx="0" cy="0" r="1" gradientUnits="userSpaceOnUse" gradientTransform="translate(20.9644 30.7382) scale(6.20609)">
<stop stop-color="#80521A"/>
<stop offset="0.94" stop-color="white"/>
</radialGradient>
<radialGradient id="paint42_radial_51_3234" cx="0" cy="0" r="1" gradientUnits="userSpaceOnUse" gradientTransform="translate(16.2371 38.133) scale(6.20609)">
<stop stop-color="#80521A"/>
<stop offset="0.94" stop-color="white"/>
</radialGradient>
<radialGradient id="paint43_radial_51_3234" cx="0" cy="0" r="1" gradientUnits="userSpaceOnUse" gradientTransform="translate(206.764 38.133) scale(6.20609)">
<stop stop-color="#80521A"/>
<stop offset="0.94" stop-color="white"/>
</radialGradient>
<radialGradient id="paint44_radial_51_3234" cx="0" cy="0" r="1" gradientUnits="userSpaceOnUse" gradientTransform="translate(206.764 23.3463) scale(6.20386)">
<stop stop-color="#80521A"/>
<stop offset="0.94" stop-color="white"/>
</radialGradient>
<linearGradient id="paint45_linear_51_3234" x1="103.535" y1="3.98278" x2="111.5" y2="3.98278" gradientUnits="userSpaceOnUse">
<stop stop-color="#FFF18F"/>
<stop offset="1" stop-color="#FFFAE3"/>
</linearGradient>
<linearGradient id="paint46_linear_51_3234" x1="105.024" y1="4.7285" x2="111.5" y2="4.7285" gradientUnits="userSpaceOnUse">
<stop stop-color="#AB5F0B"/>
<stop offset="1" stop-color="#753C00"/>
</linearGradient>
<linearGradient id="paint47_linear_51_3234" x1="111.5" y1="3.98278" x2="119.466" y2="3.98278" gradientUnits="userSpaceOnUse">
<stop stop-color="#EDA85F"/>
<stop offset="1" stop-color="#A36700"/>
</linearGradient>
<linearGradient id="paint48_linear_51_3234" x1="111.5" y1="4.7285" x2="117.976" y2="4.7285" gradientUnits="userSpaceOnUse">
<stop stop-color="#A15900"/>
<stop offset="1" stop-color="#E39644"/>
</linearGradient>
<linearGradient id="paint49_linear_51_3234" x1="103.535" y1="11.9453" x2="111.5" y2="11.9453" gradientUnits="userSpaceOnUse">
<stop stop-color="#EDA85F"/>
<stop offset="1" stop-color="#A36700"/>
</linearGradient>
<linearGradient id="paint50_linear_51_3234" x1="105.024" y1="11.2027" x2="111.5" y2="11.2027" gradientUnits="userSpaceOnUse">
<stop stop-color="#6E4500"/>
<stop offset="1" stop-color="#CF9353"/>
</linearGradient>
<linearGradient id="paint51_linear_51_3234" x1="111.5" y1="11.9453" x2="119.466" y2="11.9453" gradientUnits="userSpaceOnUse">
<stop stop-color="#AB5F0B"/>
<stop offset="1" stop-color="#753C00"/>
</linearGradient>
<linearGradient id="paint52_linear_51_3234" x1="111.5" y1="11.2027" x2="117.976" y2="11.2027" gradientUnits="userSpaceOnUse">
<stop stop-color="#FFBE45"/>
<stop offset="1" stop-color="#FFF0AB"/>
</linearGradient>
<linearGradient id="paint53_linear_51_3234" x1="111.5" y1="11.1778" x2="111.5" y2="4.75317" gradientUnits="userSpaceOnUse">
<stop stop-color="#F72F2F"/>
<stop offset="1" stop-color="#FF8A8A"/>
</linearGradient>
<linearGradient id="paint54_linear_51_3234" x1="109.894" y1="6.35901" x2="109.007" y2="5.47147" gradientUnits="userSpaceOnUse">
<stop stop-color="#FF8C8C"/>
<stop offset="1" stop-color="#FF5252"/>
</linearGradient>
<linearGradient id="paint55_linear_51_3234" x1="111.5" y1="5.47147" x2="116.486" y2="5.47147" gradientUnits="userSpaceOnUse">
<stop stop-color="#FF5E5E"/>
<stop offset="1" stop-color="#B80000"/>
</linearGradient>
<linearGradient id="paint56_linear_51_3234" x1="106.514" y1="10.4496" x2="111.5" y2="10.4496" gradientUnits="userSpaceOnUse">
<stop stop-color="#FF5E5E"/>
<stop offset="1" stop-color="#B80000"/>
</linearGradient>
<linearGradient id="paint57_linear_51_3234" x1="113.993" y1="10.4496" x2="113.106" y2="9.56431" gradientUnits="userSpaceOnUse">
<stop stop-color="#FF6666"/>
<stop offset="1" stop-color="#DE0000"/>
</linearGradient>
<linearGradient id="paint58_linear_51_3234" x1="103.535" y1="49.5299" x2="111.5" y2="49.5299" gradientUnits="userSpaceOnUse">
<stop stop-color="#FFF18F"/>
<stop offset="1" stop-color="#FFFAE3"/>
</linearGradient>
<linearGradient id="paint59_linear_51_3234" x1="0.000266431" y1="50.2757" x2="0.223267" y2="50.2757" gradientUnits="userSpaceOnUse">
<stop stop-color="#AB5F0B"/>
<stop offset="1" stop-color="#753C00"/>
</linearGradient>
<linearGradient id="paint60_linear_51_3234" x1="5.11011e-05" y1="49.5299" x2="0.223051" y2="49.5299" gradientUnits="userSpaceOnUse">
<stop stop-color="#EDA85F"/>
<stop offset="1" stop-color="#A36700"/>
</linearGradient>
<linearGradient id="paint61_linear_51_3234" x1="4.11157e-05" y1="50.2757" x2="0.223041" y2="50.2757" gradientUnits="userSpaceOnUse">
<stop stop-color="#A15900"/>
<stop offset="1" stop-color="#E39644"/>
</linearGradient>
<linearGradient id="paint62_linear_51_3234" x1="103.535" y1="57.4925" x2="111.5" y2="57.4925" gradientUnits="userSpaceOnUse">
<stop stop-color="#EDA85F"/>
<stop offset="1" stop-color="#A36700"/>
</linearGradient>
<linearGradient id="paint63_linear_51_3234" x1="105.024" y1="56.7499" x2="111.5" y2="56.7499" gradientUnits="userSpaceOnUse">
<stop stop-color="#6E4500"/>
<stop offset="1" stop-color="#CF9353"/>
</linearGradient>
<linearGradient id="paint64_linear_51_3234" x1="111.5" y1="57.4925" x2="119.466" y2="57.4925" gradientUnits="userSpaceOnUse">
<stop stop-color="#AB5F0B"/>
<stop offset="1" stop-color="#753C00"/>
</linearGradient>
<linearGradient id="paint65_linear_51_3234" x1="111.5" y1="56.7499" x2="117.976" y2="56.7499" gradientUnits="userSpaceOnUse">
<stop stop-color="#FFBE45"/>
<stop offset="1" stop-color="#FFF0AB"/>
</linearGradient>
<linearGradient id="paint66_linear_51_3234" x1="0.000110474" y1="56.725" x2="0.223111" y2="50.3003" gradientUnits="userSpaceOnUse">
<stop stop-color="#F72F2F"/>
<stop offset="1" stop-color="#FF8A8A"/>
</linearGradient>
<linearGradient id="paint67_linear_51_3234" x1="-1.57353e-05" y1="51.9062" x2="0.222984" y2="51.0186" gradientUnits="userSpaceOnUse">
<stop stop-color="#FF8C8C"/>
<stop offset="1" stop-color="#FF5252"/>
</linearGradient>
<linearGradient id="paint68_linear_51_3234" x1="3.58268e-05" y1="51.0186" x2="0.223036" y2="51.0186" gradientUnits="userSpaceOnUse">
<stop stop-color="#FF5E5E"/>
<stop offset="1" stop-color="#B80000"/>
</linearGradient>
<linearGradient id="paint69_linear_51_3234" x1="106.514" y1="56.0004" x2="111.5" y2="56.0004" gradientUnits="userSpaceOnUse">
<stop stop-color="#FF5E5E"/>
<stop offset="1" stop-color="#B80000"/>
</linearGradient>
<linearGradient id="paint70_linear_51_3234" x1="113.993" y1="56.0004" x2="113.106" y2="55.1128" gradientUnits="userSpaceOnUse">
<stop stop-color="#FF6666"/>
<stop offset="1" stop-color="#DE0000"/>
</linearGradient>
</defs>
</svg>
